<svg width="112" height="32" viewBox="0 0 112 32" fill="none" xmlns="http://www.w3.org/2000/svg">
<rect x="0.5" y="2.5" width="111" height="1" fill="#323730" stroke="#323730"/>
<rect x="0.5" y="18.5" width="111" height="1" fill="#323730" stroke="#323730"/>
<rect x="0.5" y="10.5" width="111" height="1" fill="#323730" stroke="#323730"/>
<rect x="0.5" y="26.5" width="111" height="1" fill="#323730" stroke="#323730"/>
<rect x="0.5" y="6.5" width="111" height="1" fill="#323730" stroke="#323730"/>
<rect x="0.5" y="22.5" width="111" height="1" fill="#323730" stroke="#323730"/>
<rect x="0.5" y="14.5" width="111" height="1" fill="#323730" stroke="#323730"/>
<rect x="0.5" y="30.5" width="111" height="1" fill="#323730" stroke="#323730"/>
<rect x="0.5" y="0.5" width="111" height="1" fill="#323730" stroke="#2D312C"/>
<rect x="0.5" y="16.5" width="111" height="1" fill="#323730" stroke="#2D312C"/>
<rect x="0.5" y="8.5" width="111" height="1" fill="#323730" stroke="#2D312C"/>
<rect x="0.5" y="24.5" width="111" height="1" fill="#323730" stroke="#2D312C"/>
<rect x="0.5" y="4.5" width="111" height="1" fill="#323730" stroke="#2D312C"/>
<rect x="0.5" y="20.5" width="111" height="1" fill="#323730" stroke="#2D312C"/>
<rect x="0.5" y="12.5" width="111" height="1" fill="#323730" stroke="#2D312C"/>
<rect x="0.5" y="28.5" width="111" height="1" fill="#323730" stroke="#2D312C"/>
</svg>
