<svg width="448" height="337" viewBox="0 0 448 337" fill="none" xmlns="http://www.w3.org/2000/svg">
<g clip-path="url(#clip0_13_96)">
<path opacity="0.38" d="M8.466 291.42C152.031 301.075 295.976 301.075 439.541 291.42M4.729 256.302C150.846 263.206 297.154 263.206 443.271 256.302M2.245 221.179C150.059 225.325 297.941 225.325 445.755 221.179M1 186.061C149.664 187.446 298.336 187.446 447 186.061M1 150.943C149.664 149.56 298.336 149.56 447 150.943M2.245 115.821C150.061 111.675 297.946 111.675 445.762 115.821M4.729 80.7036C150.846 73.8001 297.154 73.8001 443.271 80.7036M8.466 45.5855C152.031 35.9311 295.976 35.9311 439.541 45.5855M387.776 6.73435C400.641 114.38 400.641 222.626 387.776 330.271M340.979 3.92978C350.177 113.397 350.177 223.603 340.979 333.07M294.189 2.06611C299.713 112.934 299.713 224.066 294.189 334.934M247.399 1.13087C249.242 112.701 249.242 224.299 247.399 335.869M200.608 1.13087C198.765 112.701 198.765 224.299 200.608 335.869M153.811 2.06611C148.287 112.934 148.287 224.066 153.811 334.934M107.021 3.92978C97.8231 113.397 97.8231 223.603 107.021 333.07M60.231 6.73435C47.366 114.38 47.366 222.626 60.231 330.271M49.993 329.491C165.877 337.945 282.123 337.945 398.007 329.491C419.468 327.924 436.413 315.206 438.502 299.098C449.766 212.215 449.766 124.782 438.502 37.9023C436.413 21.7942 419.468 9.07638 398.007 7.509C282.123 -0.944969 165.877 -0.944969 49.993 7.509C28.532 9.07638 11.587 21.7942 9.498 37.9023C-1.765 124.785 -1.766 212.218 9.498 299.098C11.587 315.206 28.532 327.924 49.993 329.491Z" stroke="#3C251A" stroke-miterlimit="10"/>
</g>
<defs>
<clipPath id="clip0_13_96">
<rect width="448" height="337" fill="white"/>
</clipPath>
</defs>
</svg>
